<svg class="illustration" width="1155" height="700" viewBox="0 0 1155 700" fill="none" xmlns="http://www.w3.org/2000/svg">
<path d="M662.04 548.6C662.04 501.795 637.773 462.269 607.371 426.417C603.606 421.976 599.516 417.851 595.166 414.04L608.272 361.2L594.175 360.939C596.931 364.876 598.616 367.137 598.616 367.137L583.59 364.668L556.639 360.227L518.536 359.516L494.62 359.065L491.755 386.125C487.828 387.359 483.972 388.927 480.225 390.827C438.564 411.987 436.465 431.336 429.808 468.907L408 579.209L465.371 572.3C466.326 575.624 467.326 578.776 468.335 581.74L590.166 574.408C591.833 570.525 592.787 564.445 593.166 556.896L607.191 555.212C607.686 548.528 607.93 541.619 607.93 534.602C607.939 494.706 599.967 451.099 584.122 424.003C583.266 422.517 582.374 421.076 581.456 419.697C580.618 418.427 579.753 417.202 578.87 416.022C573.61 408.969 567.655 403.618 561.017 400.475C560.701 400.331 560.575 399.961 560.719 399.646C560.864 399.34 561.233 399.205 561.548 399.358C568.646 402.727 574.934 408.492 580.411 416.022C581.122 416.986 581.816 417.986 582.491 419.013C583.626 420.724 584.716 422.517 585.77 424.372C590.283 432.299 594.139 441.524 597.336 451.585C605.227 476.438 609.173 506.425 609.173 534.602C609.173 541.565 608.93 548.42 608.452 555.059L662.04 548.6Z" fill="#000000"/>
<path d="M717.366 234.586C713.709 226.425 709.601 217.264 708.349 209.022C705.485 215.066 708.349 232.397 711.844 245.594C714.556 255.827 699.909 263.781 693.495 263.366C702.332 264.339 708.16 264.33 713.223 262.529C716.348 261.421 719.195 259.619 722.276 256.953C725.951 253.773 722.032 244.99 717.366 234.586Z" fill="#E36302"/>
<path d="M671.003 298.56C681.695 300.839 690.054 291.354 692.901 286.337L659.626 280.644C658.959 285.67 660.31 296.29 671.003 298.56Z" fill="#E36302"/>
<path d="M582.563 343.545L583.59 343.771V329.655H574.06C576.979 334.61 579.861 339.285 582.563 343.545Z" fill="#E36302"/>
<path opacity="0.19" d="M573.303 434.354C570.943 428.715 567.773 423.724 563.971 419.446C562.917 418.247 561.809 417.103 560.656 416.023C549.478 405.501 534.137 400.376 518.536 401.853C513.275 402.349 507.987 403.592 502.817 405.636C502.231 405.871 501.646 406.114 501.06 406.366C443.662 431.228 450.598 521.207 465.371 572.3C466.326 575.624 467.326 578.777 468.335 581.74L590.166 574.408C591.833 570.525 592.787 564.445 593.166 556.897C594.796 523.838 585.149 462.656 573.303 434.354Z" fill="white"/>
<path opacity="0.1" d="M594.175 360.939C596.931 364.876 598.616 367.137 598.616 367.137L583.59 364.668L556.639 360.227L518.536 359.516L494.62 359.065L491.755 386.125C500.421 383.369 509.456 382.171 518.536 382.315C532.119 382.531 545.802 385.738 558.522 391.233C567.322 395.034 575.745 399.628 583.59 405.042C587.617 407.825 591.49 410.825 595.166 414.04L608.272 361.2L594.175 360.939Z" fill="black"/>
<path d="M717.366 234.586V186.007C714.511 184.169 708.115 177.143 693.973 153.632C688.676 162.64 683.965 178.368 653.032 190.655C622.108 202.941 566.16 190.655 566.16 190.655C566.16 190.655 563.719 194.303 560.566 200.581C555.225 193.979 548.262 187.907 539.011 186.988C531.948 186.286 524.679 187.763 518.536 190.718C510.636 194.51 504.591 200.735 503.195 207.905C501.439 216.967 508.375 227.929 518.536 234.838C522.697 237.667 527.399 239.82 532.273 240.883C537.47 242.018 542.938 241.279 547.955 239.82C546.1 252.638 546.37 266.897 551.072 281.238C556.387 297.425 565.341 314.792 574.06 329.655H583.59H622.441C665.193 329.655 701.35 301.388 713.223 262.528C708.16 264.33 702.332 264.339 693.496 263.366C699.909 263.781 714.556 255.827 711.845 245.594C708.349 232.397 705.485 215.066 708.349 209.022C709.602 217.264 713.709 226.425 717.366 234.586ZM545.902 213.075L545.46 213.472L545.046 213.048C543.695 211.688 542.055 211.067 540.452 211.067C538.119 211.067 535.912 212.373 534.93 214.715C534.633 215.426 534.498 216.156 534.498 216.904C534.498 218.876 535.488 220.93 537.02 222.48C538.542 224.029 540.587 225.047 542.596 225.047C543.055 225.047 543.514 224.993 543.965 224.885C544.298 224.804 544.631 225.011 544.712 225.344C544.794 225.677 544.586 226.011 544.253 226.092C543.704 226.227 543.145 226.29 542.596 226.29C540.173 226.281 537.858 225.092 536.128 223.353C534.416 221.606 533.264 219.291 533.254 216.904C533.254 216.003 533.426 215.102 533.786 214.237C534.966 211.418 537.659 209.814 540.452 209.823C542.19 209.823 543.983 210.445 545.469 211.742C546.082 211.04 546.289 210.292 546.298 209.499C546.307 208.454 545.875 207.319 545.316 206.373C544.758 205.428 544.082 204.653 543.704 204.329C543.442 204.103 543.415 203.716 543.641 203.455C543.866 203.194 544.253 203.167 544.514 203.392C545.028 203.842 545.757 204.671 546.388 205.743C547.01 206.815 547.541 208.121 547.541 209.499C547.55 210.742 547.073 212.039 545.902 213.075ZM686.776 227.596H665.616C665.616 221.759 670.354 217.021 676.191 217.021C682.037 217.021 686.776 221.759 686.776 227.596ZM659.905 206.382C660.806 204.887 662.617 202.635 665.22 200.554C667.832 198.474 671.246 196.573 675.327 195.87C675.66 195.816 675.984 196.041 676.038 196.375C676.101 196.717 675.876 197.041 675.534 197.095C671.715 197.753 668.481 199.545 665.994 201.527C663.517 203.5 661.779 205.68 660.968 207.022C660.797 207.319 660.41 207.409 660.121 207.238C659.824 207.058 659.734 206.68 659.905 206.382ZM671.003 298.56C660.311 296.29 658.959 285.67 659.626 280.643L692.901 286.336C690.055 291.354 681.695 300.839 671.003 298.56Z" fill="#FAA241"/>
<path d="M583.59 345.14V343.771L582.564 343.545C582.906 344.086 583.248 344.617 583.59 345.14Z" fill="#FAA241"/>
<path d="M518.536 359.516L556.639 360.228L518.536 353.958V359.516Z" fill="#FAA241"/>
<path d="M472.929 113.998C430.574 122.897 461.741 303.613 416.981 337.177L465.614 346.626L481.675 317.711V347.896L518.536 353.958L556.639 360.228L583.59 364.669L598.616 367.137C598.616 367.137 596.931 364.876 594.175 360.939C591.481 357.093 587.77 351.652 583.59 345.14C583.248 344.617 582.906 344.086 582.564 343.545C579.861 339.285 576.979 334.609 574.06 329.655C565.34 314.792 556.387 297.425 551.072 281.238C546.37 266.897 546.1 252.638 547.955 239.82C542.938 241.279 537.47 242.018 532.273 240.883C527.399 239.82 522.697 237.667 518.536 234.838C508.375 227.929 501.439 216.967 503.195 207.905C504.591 200.734 510.636 194.51 518.536 190.718C524.679 187.763 531.948 186.286 539.01 186.988C548.262 187.907 555.225 193.979 560.566 200.581C563.719 194.303 566.16 190.655 566.16 190.655C566.16 190.655 622.108 202.941 653.032 190.655C683.965 178.368 688.676 162.64 693.973 153.632C708.115 177.143 714.511 184.169 717.366 186.007C719.312 187.259 719.618 186.115 719.618 186.115C719.618 186.115 726.644 149.678 719.618 133.274C697.378 81.3802 525.886 102.882 472.929 113.998Z" fill="#f7e5c9"/>
<path d="M734.31 217.02C728.464 217.02 723.726 221.758 723.726 227.595H744.885C744.885 221.758 740.147 217.02 734.31 217.02Z" fill="#231F20"/>
<path d="M747.894 206.382C746.993 204.887 745.183 202.635 742.579 200.554C739.967 198.473 736.553 196.572 732.472 195.87C732.139 195.816 731.815 196.041 731.752 196.374C731.698 196.717 731.923 197.041 732.265 197.095C736.085 197.752 739.318 199.545 741.805 201.527C744.282 203.5 746.02 205.679 746.822 207.022C747.002 207.319 747.381 207.409 747.678 207.238C747.975 207.058 748.065 206.679 747.894 206.382Z" fill="#231F20"/>
<path d="M676.191 217.02C670.354 217.02 665.616 221.758 665.616 227.595H686.776C686.776 221.758 682.037 217.02 676.191 217.02Z" fill="#231F20"/>
<path d="M675.534 197.095C675.876 197.041 676.101 196.717 676.038 196.374C675.984 196.041 675.66 195.816 675.327 195.87C671.246 196.572 667.832 198.473 665.22 200.554C662.616 202.635 660.806 204.887 659.905 206.382C659.734 206.679 659.824 207.058 660.121 207.238C660.41 207.409 660.797 207.319 660.968 207.022C661.779 205.679 663.517 203.5 665.994 201.527C668.481 199.545 671.714 197.752 675.534 197.095Z" fill="#231F20"/>
<path d="M544.514 203.391C544.253 203.166 543.866 203.193 543.641 203.454C543.415 203.715 543.442 204.103 543.704 204.328C544.082 204.652 544.758 205.427 545.316 206.373C545.874 207.319 546.307 208.454 546.298 209.499C546.289 210.291 546.082 211.039 545.469 211.741C543.983 210.444 542.19 209.823 540.452 209.823C537.659 209.814 534.966 211.417 533.786 214.237C533.426 215.101 533.254 216.002 533.254 216.903C533.263 219.29 534.416 221.605 536.128 223.353C537.857 225.091 540.172 226.28 542.596 226.289C543.145 226.289 543.704 226.226 544.253 226.091C544.586 226.01 544.794 225.677 544.712 225.343C544.631 225.01 544.298 224.803 543.965 224.884C543.514 224.992 543.055 225.046 542.596 225.046C540.587 225.046 538.542 224.028 537.02 222.479C535.488 220.93 534.498 218.876 534.498 216.903C534.498 216.155 534.633 215.426 534.93 214.714C535.912 212.372 538.119 211.066 540.452 211.066C542.055 211.066 543.695 211.687 545.046 213.048L545.46 213.471L545.901 213.075C547.072 212.039 547.55 210.742 547.541 209.499C547.541 208.12 547.009 206.814 546.388 205.742C545.757 204.67 545.028 203.842 544.514 203.391Z" fill="#231F20"/>
<path d="M585.77 424.373C584.716 422.517 583.626 420.724 582.491 419.013C581.816 417.986 581.122 416.986 580.411 416.022C574.934 408.492 568.646 402.727 561.548 399.358C561.233 399.205 560.863 399.34 560.719 399.646C560.575 399.961 560.701 400.331 561.017 400.475C567.655 403.619 573.61 408.969 578.87 416.022C579.753 417.202 580.618 418.427 581.456 419.698C582.374 421.076 583.266 422.517 584.122 424.003C599.967 451.099 607.939 494.706 607.93 534.602C607.93 541.619 607.686 548.528 607.191 555.212C605.966 571.814 603.237 587.037 598.994 599.17C598.886 599.495 599.057 599.855 599.381 599.963C599.705 600.08 600.057 599.909 600.174 599.585C604.48 587.235 607.227 571.841 608.452 555.059C608.93 548.42 609.173 541.565 609.173 534.602C609.173 506.425 605.227 476.438 597.336 451.585C594.139 441.524 590.283 432.3 585.77 424.373Z" fill="#231F20"/>
</svg>