<svg class="illustration" width="1155" height="700" viewBox="0 0 1155 700" fill="none" xmlns="http://www.w3.org/2000/svg">
<path fill-rule="evenodd" clip-rule="evenodd" d="M517.215 250.055L535.807 225.028L544.388 231.463L528.656 260.781L517.215 250.055ZM656.654 331.385L647.848 319.53L643.783 322.578L651.235 336.465L656.654 331.385ZM363.122 350L371.928 361.855L366.509 366.936L359.057 353.048L363.122 350ZM761.503 314.53L738.043 282.949L727.215 291.069L747.066 328.064L761.503 314.53ZM567.952 416.382L591.412 447.962L576.975 461.497L557.124 424.502L567.952 416.382Z" fill="#fccd87"/>
<path fill-rule="evenodd" clip-rule="evenodd" d="M365.493 219.228L377.396 203.204L382.89 207.325L372.818 226.095L365.493 219.228ZM457.867 320.131L476.459 345.159L465.018 355.885L449.287 326.567L457.867 320.131ZM601.283 328.047L577.823 359.627L592.26 373.162L612.111 336.167L601.283 328.047ZM833.648 407.835L822.536 392.875L817.407 396.722L826.81 414.246L833.648 407.835ZM712.068 424.485L698.968 445.62L687.655 440.285L704.776 420.012L712.068 424.485ZM418.407 426.598L430.31 410.574L435.804 414.695L425.732 433.465L418.407 426.598ZM502.048 471.079L507.687 478.669L504.217 481.922L499.446 473.03L502.048 471.079ZM665.235 220.021L683.827 245.049L672.386 255.775L656.655 226.457L665.235 220.021Z" fill="#000000"/>
<path fill-rule="evenodd" clip-rule="evenodd" d="M460.263 200L472.166 216.024L464.841 222.891L454.769 204.12L460.263 200ZM513.177 407.37L525.08 423.394L517.755 430.261L507.683 411.49L513.177 407.37ZM650.665 454.885L674.125 486.465L659.688 500L639.837 463.005L650.665 454.885ZM392.311 487.487L380.408 471.463L374.914 475.584L384.986 494.354L392.311 487.487ZM339.397 280.118L327.494 264.094L322 268.215L332.072 286.985L339.397 280.118ZM449.134 263.71L454.772 271.3L451.302 274.553L446.531 265.661L449.134 263.71Z" fill="#4987CF"/>
</svg>