<svg width="24" height="24" viewBox="0 0 24 24" fill="none" xmlns="http://www.w3.org/2000/svg"><rect width="24" height="24" fill="none" rx="0" ry="0"></rect><path fill-rule="evenodd" clip-rule="evenodd" d="M4.5 6C3.67157 6 3 6.67157 3 7.5V18.5C3 19.3284 3.67157 20 4.5 20H19.5C20.3284 20 21 19.3284 21 18.5V5.5C21 4.67157 20.3284 4 19.5 4H14.8284C14.298 4 13.7893 4.21071 13.4142 4.58579L12 6H4.5ZM4.7 7.2C4.42386 7.2 4.2 7.42386 4.2 7.7V18.3C4.2 18.5761 4.42386 18.8 4.7 18.8H19.3C19.5761 18.8 19.8 18.5761 19.8 18.3V5.7C19.8 5.42386 19.5761 5.2 19.3 5.2H14.5L12.55 7.2H4.7Z" fill="#FFB6B6"></path></svg>