<svg class="illustration" width="1155" height="700" viewBox="0 0 1155 700" fill="none" xmlns="http://www.w3.org/2000/svg">
<path d="M591.686 285.538L508.362 185L925.78 242.304L516.313 470.916L591.686 285.538Z" fill="#FCAACF"/>
<path fill-rule="evenodd" clip-rule="evenodd" d="M596.231 284.95L533.342 334.687L916.687 243.48L596.231 284.95ZM506.576 328.696C507.305 328.607 507.926 328.526 508.432 328.454L508.29 327.464C507.794 327.535 507.181 327.614 506.455 327.703L506.576 328.696ZM498.647 329.623C499.952 329.47 501.156 329.331 502.252 329.204L502.579 329.166L502.464 328.173L502.139 328.21L502.139 328.21C501.042 328.337 499.837 328.476 498.531 328.629L498.647 329.623ZM490.631 330.595C492.039 330.418 493.381 330.252 494.653 330.098L494.533 329.105C493.259 329.26 491.916 329.425 490.506 329.603L490.631 330.595ZM482.677 331.639C484.079 331.447 485.437 331.266 486.749 331.094L486.619 330.102C485.306 330.274 483.946 330.456 482.542 330.648L482.677 331.639ZM474.795 332.761C476.173 332.557 477.52 332.362 478.833 332.175L478.692 331.185C477.377 331.372 476.029 331.568 474.649 331.772L474.795 332.761ZM466.946 333.969C468.296 333.754 469.622 333.546 470.924 333.346L470.772 332.357C469.469 332.558 468.14 332.766 466.788 332.982L466.946 333.969ZM459.099 335.271C460.422 335.044 461.728 334.823 463.014 334.61L462.85 333.623C461.562 333.837 460.255 334.058 458.929 334.286L459.099 335.271ZM451.237 336.673C452.537 336.433 453.823 336.199 455.094 335.973L454.919 334.988C453.646 335.215 452.358 335.449 451.056 335.689L451.237 336.673ZM443.357 338.179C444.682 337.917 445.995 337.662 447.295 337.413L447.107 336.431C445.805 336.68 444.49 336.935 443.163 337.198L443.357 338.179ZM435.542 339.776C436.866 339.496 438.179 339.224 439.482 338.958L439.282 337.978C437.977 338.244 436.661 338.518 435.335 338.798L435.542 339.776ZM427.771 341.471C429.07 341.178 430.361 340.892 431.643 340.613L431.43 339.636C430.146 339.916 428.852 340.202 427.551 340.495L427.771 341.471ZM419.972 343.284C421.272 342.972 422.564 342.667 423.85 342.368L423.623 341.394C422.336 341.693 421.041 341.999 419.739 342.311L419.972 343.284ZM412.221 345.201C413.525 344.869 414.823 344.543 416.115 344.223L415.874 343.252C414.58 343.573 413.28 343.899 411.974 344.232L412.221 345.201ZM404.522 347.227C405.804 346.879 407.083 346.538 408.357 346.202L408.103 345.235C406.826 345.571 405.545 345.913 404.26 346.262L404.522 347.227ZM396.811 349.383C398.097 349.012 399.381 348.648 400.661 348.29L400.392 347.327C399.109 347.685 397.823 348.05 396.534 348.422L396.811 349.383ZM389.176 351.65C390.453 351.259 391.729 350.875 393.001 350.497L392.717 349.538C391.441 349.917 390.163 350.302 388.883 350.694L389.176 351.65ZM381.565 354.05C382.826 353.64 384.086 353.237 385.345 352.84L385.044 351.886C383.783 352.284 382.52 352.688 381.256 353.099L381.565 354.05ZM373.985 356.588C375.25 356.151 376.514 355.722 377.778 355.299L377.46 354.351C376.194 354.775 374.927 355.205 373.659 355.643L373.985 356.588ZM366.481 359.256C367.73 358.799 368.979 358.348 370.228 357.904L369.893 356.962C368.641 357.407 367.389 357.859 366.137 358.317L366.481 359.256ZM359.009 362.079C360.25 361.596 361.493 361.119 362.736 360.65L362.383 359.714C361.136 360.185 359.891 360.663 358.646 361.148L359.009 362.079ZM351.611 365.051C352.841 364.541 354.072 364.039 355.305 363.544L354.933 362.616C353.696 363.113 352.461 363.616 351.228 364.127L351.611 365.051ZM344.274 368.185C345.49 367.649 346.708 367.121 347.929 366.599L347.536 365.68C346.312 366.203 345.09 366.733 343.871 367.27L344.274 368.185ZM337.014 371.488C338.218 370.923 339.425 370.365 340.635 369.815L340.221 368.905C339.007 369.457 337.797 370.016 336.589 370.583L337.014 371.488ZM329.838 374.969C331.026 374.374 332.218 373.786 333.414 373.206L332.978 372.307C331.778 372.889 330.582 373.478 329.39 374.075L329.838 374.969ZM322.759 378.635C323.93 378.008 325.106 377.39 326.286 376.778L325.826 375.89C324.642 376.504 323.462 377.125 322.287 377.754L322.759 378.635ZM315.782 382.5C316.934 381.84 318.091 381.188 319.254 380.544L318.77 379.669C317.602 380.315 316.441 380.97 315.285 381.632L315.782 382.5ZM308.926 386.569C310.059 385.872 311.199 385.184 312.344 384.504L311.834 383.644C310.684 384.327 309.54 385.018 308.402 385.717L308.926 386.569ZM302.209 390.851C303.314 390.12 304.427 389.398 305.546 388.684L305.009 387.841C303.885 388.557 302.767 389.283 301.657 390.016L302.209 390.851ZM295.633 395.365C296.715 394.593 297.805 393.831 298.903 393.078L298.337 392.253C297.234 393.01 296.139 393.776 295.052 394.55L295.633 395.365ZM289.241 400.104C290.289 399.295 291.347 398.496 292.413 397.705L291.818 396.902C290.746 397.696 289.684 398.499 288.63 399.312L289.241 400.104ZM283.025 405.099C284.041 404.248 285.068 403.406 286.104 402.574L285.477 401.794C284.436 402.631 283.404 403.477 282.383 404.333L283.025 405.099ZM277.031 410.341C278.012 409.445 279.004 408.559 280.007 407.682L279.349 406.929C278.341 407.811 277.343 408.702 276.357 409.603L277.031 410.341ZM271.279 415.841C272.214 414.904 273.162 413.978 274.12 413.061L273.429 412.338C272.465 413.26 271.512 414.192 270.571 415.134L271.279 415.841ZM265.788 421.611C266.679 420.628 267.583 419.655 268.499 418.692L267.775 418.003C266.853 418.971 265.943 419.95 265.047 420.94L265.788 421.611ZM260.6 427.64C261.438 426.614 262.29 425.598 263.155 424.593L262.397 423.94C261.526 424.952 260.669 425.974 259.825 427.008L260.6 427.64ZM255.734 433.939C256.516 432.867 257.313 431.807 258.124 430.757L257.333 430.146C256.516 431.202 255.714 432.27 254.926 433.349L255.734 433.939ZM251.229 440.49C251.948 439.377 252.683 438.275 253.434 437.185L252.61 436.618C251.854 437.717 251.114 438.826 250.389 439.947L251.229 440.49ZM247.102 447.301C247.757 446.143 248.429 444.997 249.117 443.862L248.262 443.344C247.569 444.487 246.892 445.642 246.232 446.808L247.102 447.301ZM243.399 454.322C243.983 453.13 244.583 451.949 245.2 450.78L244.315 450.313C243.694 451.492 243.089 452.681 242.501 453.882L243.399 454.322ZM240.122 461.574C240.631 460.348 241.157 459.135 241.701 457.932L240.789 457.52C240.242 458.732 239.711 459.955 239.198 461.19L240.122 461.574ZM237.299 469.005C237.734 467.744 238.187 466.494 238.658 465.256L237.723 464.901C237.249 466.149 236.792 467.408 236.354 468.679L237.299 469.005ZM234.944 476.582C235.297 475.31 235.668 474.05 236.056 472.8L235.101 472.503C234.71 473.763 234.336 475.033 233.981 476.315L234.944 476.582ZM233.042 484.346C233.323 483.03 233.621 481.725 233.939 480.431L232.967 480.193C232.648 481.497 232.347 482.812 232.064 484.138L233.042 484.346ZM231.624 492.115C231.824 490.804 232.042 489.504 232.277 488.214L231.294 488.034C231.057 489.334 230.837 490.644 230.636 491.965L231.624 492.115ZM230.646 500.067C230.772 498.727 230.916 497.399 231.078 496.08L230.086 495.958C229.922 497.286 229.777 498.624 229.65 499.973L230.646 500.067ZM230.12 507.939C230.173 506.607 230.243 505.285 230.331 503.973L229.333 503.907C229.245 505.228 229.174 506.559 229.121 507.9L230.12 507.939ZM230 514.001C230 513.32 230.004 512.641 230.013 511.965L229.013 511.952C229.005 512.633 229 513.316 229 514.001H230Z" fill="#2249B3"/>
</svg>